<?xml version="1.0" encoding="utf-8" standalone="no"?>
<!DOCTYPE svg PUBLIC "-//W3C//DTD SVG 1.1//EN"
  "http://www.w3.org/Graphics/SVG/1.1/DTD/svg11.dtd">
<svg xmlns:xlink="http://www.w3.org/1999/xlink" width="231.25pt" height="84.84pt" viewBox="0 0 231.25 84.84" xmlns="http://www.w3.org/2000/svg" version="1.1">
 <metadata>
  <rdf:RDF xmlns:dc="http://purl.org/dc/elements/1.1/" xmlns:cc="http://creativecommons.org/ns#" xmlns:rdf="http://www.w3.org/1999/02/22-rdf-syntax-ns#">
   <cc:Work>
    <dc:type rdf:resource="http://purl.org/dc/dcmitype/StillImage"/>
    <dc:date>2026-06-09T23:10:09.294988</dc:date>
    <dc:format>image/svg+xml</dc:format>
    <dc:creator>
     <cc:Agent>
      <dc:title>Matplotlib v3.11.0rc2, https://matplotlib.org/</dc:title>
     </cc:Agent>
    </dc:creator>
   </cc:Work>
  </rdf:RDF>
 </metadata>
 <defs>
  <style type="text/css">*{stroke-linejoin: round; stroke-linecap: butt}</style>
 </defs>
 <g id="figure_1">
  <g id="patch_1">
   <path d="M 0 84.84 
L 231.25 84.84 
L 231.25 0 
L 0 0 
L 0 84.84 
z
" style="fill: none; opacity: 0"/>
  </g>
  <g id="axes_1">
   <g id="patch_2">
    <path d="M 56.65 62.64 
L 224.05 62.64 
L 224.05 7.2 
L 56.65 7.2 
L 56.65 62.64 
z
" style="fill: none; opacity: 0"/>
   </g>
   <g id="matplotlib.axis_1">
    <g id="xtick_1">
     <g id="line2d_1">
      <defs>
       <path id="maa1b1203d8" d="M 0 0 
L 0 3 
" style="stroke: #000000; stroke-width: 0.8"/>
      </defs>
      <g>
       <use xlink:href="#maa1b1203d8" x="88.037498" y="62.64" style="stroke: #000000; stroke-width: 0.8"/>
      </g>
     </g>
     <g id="text_1">
      <!-- 08 -->
      <g transform="translate(81.674998 75.237656) scale(0.1 -0.1)">
       <defs>
        <path id="DejaVuSans-13" d="M 2034 4250 
Q 1547 4250 1301 3770 
Q 1056 3291 1056 2328 
Q 1056 1369 1301 889 
Q 1547 409 2034 409 
Q 2525 409 2770 889 
Q 3016 1369 3016 2328 
Q 3016 3291 2770 3770 
Q 2525 4250 2034 4250 
z
M 2034 4750 
Q 2819 4750 3233 4129 
Q 3647 3509 3647 2328 
Q 3647 1150 3233 529 
Q 2819 -91 2034 -91 
Q 1250 -91 836 529 
Q 422 1150 422 2328 
Q 422 3509 836 4129 
Q 1250 4750 2034 4750 
z
" transform="scale(0.015625)"/>
        <path id="DejaVuSans-1b" d="M 2034 2216 
Q 1584 2216 1326 1975 
Q 1069 1734 1069 1313 
Q 1069 891 1326 650 
Q 1584 409 2034 409 
Q 2484 409 2743 651 
Q 3003 894 3003 1313 
Q 3003 1734 2745 1975 
Q 2488 2216 2034 2216 
z
M 1403 2484 
Q 997 2584 770 2862 
Q 544 3141 544 3541 
Q 544 4100 942 4425 
Q 1341 4750 2034 4750 
Q 2731 4750 3128 4425 
Q 3525 4100 3525 3541 
Q 3525 3141 3298 2862 
Q 3072 2584 2669 2484 
Q 3125 2378 3379 2068 
Q 3634 1759 3634 1313 
Q 3634 634 3220 271 
Q 2806 -91 2034 -91 
Q 1263 -91 848 271 
Q 434 634 434 1313 
Q 434 1759 690 2068 
Q 947 2378 1403 2484 
z
M 1172 3481 
Q 1172 3119 1398 2916 
Q 1625 2713 2034 2713 
Q 2441 2713 2670 2916 
Q 2900 3119 2900 3481 
Q 2900 3844 2670 4047 
Q 2441 4250 2034 4250 
Q 1625 4250 1398 4047 
Q 1172 3844 1172 3481 
z
" transform="scale(0.015625)"/>
       </defs>
       <use xlink:href="#DejaVuSans-13"/>
       <use xlink:href="#DejaVuSans-1b" transform="translate(63.625 0)"/>
      </g>
     </g>
    </g>
    <g id="xtick_2">
     <g id="line2d_2">
      <g>
       <use xlink:href="#maa1b1203d8" x="129.887497" y="62.64" style="stroke: #000000; stroke-width: 0.8"/>
      </g>
     </g>
     <g id="text_2">
      <!-- 10 -->
      <g transform="translate(123.524997 75.237656) scale(0.1 -0.1)">
       <defs>
        <path id="DejaVuSans-14" d="M 794 531 
L 1825 531 
L 1825 4091 
L 703 3866 
L 703 4441 
L 1819 4666 
L 2450 4666 
L 2450 531 
L 3481 531 
L 3481 0 
L 794 0 
L 794 531 
z
" transform="scale(0.015625)"/>
       </defs>
       <use xlink:href="#DejaVuSans-14"/>
       <use xlink:href="#DejaVuSans-13" transform="translate(63.625 0)"/>
      </g>
     </g>
    </g>
    <g id="xtick_3">
     <g id="line2d_3">
      <g>
       <use xlink:href="#maa1b1203d8" x="171.737503" y="62.64" style="stroke: #000000; stroke-width: 0.8"/>
      </g>
     </g>
     <g id="text_3">
      <!-- 12 -->
      <g transform="translate(165.375003 75.237656) scale(0.1 -0.1)">
       <defs>
        <path id="DejaVuSans-15" d="M 1228 531 
L 3431 531 
L 3431 0 
L 469 0 
L 469 531 
Q 828 903 1448 1529 
Q 2069 2156 2228 2338 
Q 2531 2678 2651 2914 
Q 2772 3150 2772 3378 
Q 2772 3750 2511 3984 
Q 2250 4219 1831 4219 
Q 1534 4219 1204 4116 
Q 875 4013 500 3803 
L 500 4441 
Q 881 4594 1212 4672 
Q 1544 4750 1819 4750 
Q 2544 4750 2975 4387 
Q 3406 4025 3406 3419 
Q 3406 3131 3298 2873 
Q 3191 2616 2906 2266 
Q 2828 2175 2409 1742 
Q 1991 1309 1228 531 
z
" transform="scale(0.015625)"/>
       </defs>
       <use xlink:href="#DejaVuSans-14"/>
       <use xlink:href="#DejaVuSans-15" transform="translate(63.625 0)"/>
      </g>
     </g>
    </g>
    <g id="xtick_4">
     <g id="line2d_4">
      <g>
       <use xlink:href="#maa1b1203d8" x="213.587494" y="62.64" style="stroke: #000000; stroke-width: 0.8"/>
      </g>
     </g>
     <g id="text_4">
      <!-- 14 -->
      <g transform="translate(207.224994 75.237656) scale(0.1 -0.1)">
       <defs>
        <path id="DejaVuSans-17" d="M 2419 4116 
L 825 1625 
L 2419 1625 
L 2419 4116 
z
M 2253 4666 
L 3047 4666 
L 3047 1625 
L 3713 1625 
L 3713 1100 
L 3047 1100 
L 3047 0 
L 2419 0 
L 2419 1100 
L 313 1100 
L 313 1709 
L 2253 4666 
z
" transform="scale(0.015625)"/>
       </defs>
       <use xlink:href="#DejaVuSans-14"/>
       <use xlink:href="#DejaVuSans-17" transform="translate(63.625 0)"/>
      </g>
     </g>
    </g>
   </g>
   <g id="matplotlib.axis_2">
    <g id="ytick_1">
     <g id="line2d_5">
      <path d="M 56.65 62.64 
L 224.05 62.64 
" clip-path="url(#p624d46a205)" style="fill: none; stroke-dasharray: 1.48,0.64; stroke-dashoffset: 0; stroke: #808080; stroke-opacity: 0.45; stroke-width: 0.4"/>
     </g>
     <g id="line2d_6">
      <defs>
       <path id="ma3e1af288a" d="M 0 0 
L -3 0 
" style="stroke: #000000; stroke-width: 0.8"/>
      </defs>
      <g>
       <use xlink:href="#ma3e1af288a" x="56.65" y="62.64" style="stroke: #000000; stroke-width: 0.8"/>
      </g>
     </g>
     <g id="text_5">
      <!-- 0 -->
      <g transform="translate(45.2875 66.438828) scale(0.1 -0.1)">
       <use xlink:href="#DejaVuSans-13"/>
      </g>
     </g>
    </g>
    <g id="ytick_2">
     <g id="line2d_7">
      <path d="M 56.65 17.775185 
L 224.05 17.775185 
" clip-path="url(#p624d46a205)" style="fill: none; stroke-dasharray: 1.48,0.64; stroke-dashoffset: 0; stroke: #808080; stroke-opacity: 0.45; stroke-width: 0.4"/>
     </g>
     <g id="line2d_8">
      <g>
       <use xlink:href="#ma3e1af288a" x="56.65" y="17.775185" style="stroke: #000000; stroke-width: 0.8"/>
      </g>
     </g>
     <g id="text_6">
      <!-- 2000 -->
      <g transform="translate(26.2 21.574014) scale(0.1 -0.1)">
       <use xlink:href="#DejaVuSans-15"/>
       <use xlink:href="#DejaVuSans-13" transform="translate(63.625 0)"/>
       <use xlink:href="#DejaVuSans-13" transform="translate(127.25 0)"/>
       <use xlink:href="#DejaVuSans-13" transform="translate(190.875 0)"/>
      </g>
     </g>
    </g>
    <g id="text_7">
     <!-- CPU % -->
     <g transform="translate(18.596484 59.678203) rotate(-90) scale(0.15 -0.15)">
      <defs>
       <path id="DejaVuSans-26" d="M 4122 4306 
L 4122 3641 
Q 3803 3938 3442 4084 
Q 3081 4231 2675 4231 
Q 1875 4231 1450 3742 
Q 1025 3253 1025 2328 
Q 1025 1406 1450 917 
Q 1875 428 2675 428 
Q 3081 428 3442 575 
Q 3803 722 4122 1019 
L 4122 359 
Q 3791 134 3420 21 
Q 3050 -91 2638 -91 
Q 1578 -91 968 557 
Q 359 1206 359 2328 
Q 359 3453 968 4101 
Q 1578 4750 2638 4750 
Q 3056 4750 3426 4639 
Q 3797 4528 4122 4306 
z
" transform="scale(0.015625)"/>
       <path id="DejaVuSans-33" d="M 1259 4147 
L 1259 2394 
L 2053 2394 
Q 2494 2394 2734 2622 
Q 2975 2850 2975 3272 
Q 2975 3691 2734 3919 
Q 2494 4147 2053 4147 
L 1259 4147 
z
M 628 4666 
L 2053 4666 
Q 2838 4666 3239 4311 
Q 3641 3956 3641 3272 
Q 3641 2581 3239 2228 
Q 2838 1875 2053 1875 
L 1259 1875 
L 1259 0 
L 628 0 
L 628 4666 
z
" transform="scale(0.015625)"/>
       <path id="DejaVuSans-38" d="M 556 4666 
L 1191 4666 
L 1191 1831 
Q 1191 1081 1462 751 
Q 1734 422 2344 422 
Q 2950 422 3222 751 
Q 3494 1081 3494 1831 
L 3494 4666 
L 4128 4666 
L 4128 1753 
Q 4128 841 3676 375 
Q 3225 -91 2344 -91 
Q 1459 -91 1007 375 
Q 556 841 556 1753 
L 556 4666 
z
" transform="scale(0.015625)"/>
       <path id="DejaVuSans-3" transform="scale(0.015625)"/>
       <path id="DejaVuSans-8" d="M 4653 2053 
Q 4381 2053 4226 1822 
Q 4072 1591 4072 1178 
Q 4072 772 4226 539 
Q 4381 306 4653 306 
Q 4919 306 5073 539 
Q 5228 772 5228 1178 
Q 5228 1588 5073 1820 
Q 4919 2053 4653 2053 
z
M 4653 2450 
Q 5147 2450 5437 2106 
Q 5728 1763 5728 1178 
Q 5728 594 5436 251 
Q 5144 -91 4653 -91 
Q 4153 -91 3862 251 
Q 3572 594 3572 1178 
Q 3572 1766 3864 2108 
Q 4156 2450 4653 2450 
z
M 1428 4353 
Q 1159 4353 1004 4120 
Q 850 3888 850 3481 
Q 850 3069 1003 2837 
Q 1156 2606 1428 2606 
Q 1700 2606 1854 2837 
Q 2009 3069 2009 3481 
Q 2009 3884 1853 4118 
Q 1697 4353 1428 4353 
z
M 4250 4750 
L 4750 4750 
L 1831 -91 
L 1331 -91 
L 4250 4750 
z
M 1428 4750 
Q 1922 4750 2215 4408 
Q 2509 4066 2509 3481 
Q 2509 2891 2217 2550 
Q 1925 2209 1428 2209 
Q 931 2209 642 2551 
Q 353 2894 353 3481 
Q 353 4063 643 4406 
Q 934 4750 1428 4750 
z
" transform="scale(0.015625)"/>
      </defs>
      <use xlink:href="#DejaVuSans-26"/>
      <use xlink:href="#DejaVuSans-33" transform="translate(69.828125 0)"/>
      <use xlink:href="#DejaVuSans-38" transform="translate(130.125 0)"/>
      <use xlink:href="#DejaVuSans-3" transform="translate(203.3125 0)"/>
      <use xlink:href="#DejaVuSans-8" transform="translate(235.09375 0)"/>
     </g>
    </g>
   </g>
   <g id="patch_3">
    <path d="M 56.65 62.64 
L 56.65 7.2 
" style="fill: none; stroke: #000000; stroke-width: 0.8; stroke-linejoin: miter; stroke-linecap: square"/>
   </g>
   <g id="patch_4">
    <path d="M 56.650002 62.64 
L 224.049995 62.64 
" style="fill: none; stroke: #000000; stroke-width: 0.8; stroke-linejoin: miter; stroke-linecap: square"/>
   </g>
   <g id="legend_1">
    <g id="line2d_9">
     <path d="M 85.700781 28.642884 
L 93.200781 28.642884 
L 100.700781 28.642884 
" style="fill: none; stroke: #9dbdff; stroke-opacity: 0.95; stroke-width: 1.8; stroke-linecap: square"/>
     <defs>
      <path id="m6213758f34" d="M 0 2.6 
C 0.689528 2.6 1.350908 2.326048 1.838478 1.838478 
C 2.326048 1.350908 2.6 0.689528 2.6 0 
C 2.6 -0.689528 2.326048 -1.350908 1.838478 -1.838478 
C 1.350908 -2.326048 0.689528 -2.6 0 -2.6 
C -0.689528 -2.6 -1.350908 -2.326048 -1.838478 -1.838478 
C -2.326048 -1.350908 -2.6 -0.689528 -2.6 0 
C -2.6 0.689528 -2.326048 1.350908 -1.838478 1.838478 
C -1.350908 2.326048 -0.689528 2.6 0 2.6 
z
" style="stroke: #000000; stroke-opacity: 0.95; stroke-width: 0.5"/>
     </defs>
     <g>
      <use xlink:href="#m6213758f34" x="93.200781" y="28.642884" style="fill: #9dbdff; fill-opacity: 0.95; stroke: #000000; stroke-opacity: 0.95; stroke-width: 0.5"/>
     </g>
    </g>
    <g id="text_8">
     <!-- Gen: 52% -->
     <g transform="translate(104.450781 33.892884) scale(0.15 -0.15)">
      <defs>
       <path id="DejaVuSans-2a" d="M 3809 666 
L 3809 1919 
L 2778 1919 
L 2778 2438 
L 4434 2438 
L 4434 434 
Q 4069 175 3628 42 
Q 3188 -91 2688 -91 
Q 1594 -91 976 548 
Q 359 1188 359 2328 
Q 359 3472 976 4111 
Q 1594 4750 2688 4750 
Q 3144 4750 3555 4637 
Q 3966 4525 4313 4306 
L 4313 3634 
Q 3963 3931 3569 4081 
Q 3175 4231 2741 4231 
Q 1884 4231 1454 3753 
Q 1025 3275 1025 2328 
Q 1025 1384 1454 906 
Q 1884 428 2741 428 
Q 3075 428 3337 486 
Q 3600 544 3809 666 
z
" transform="scale(0.015625)"/>
       <path id="DejaVuSans-48" d="M 3597 1894 
L 3597 1613 
L 953 1613 
Q 991 1019 1311 708 
Q 1631 397 2203 397 
Q 2534 397 2845 478 
Q 3156 559 3463 722 
L 3463 178 
Q 3153 47 2828 -22 
Q 2503 -91 2169 -91 
Q 1331 -91 842 396 
Q 353 884 353 1716 
Q 353 2575 817 3079 
Q 1281 3584 2069 3584 
Q 2775 3584 3186 3129 
Q 3597 2675 3597 1894 
z
M 3022 2063 
Q 3016 2534 2758 2815 
Q 2500 3097 2075 3097 
Q 1594 3097 1305 2825 
Q 1016 2553 972 2059 
L 3022 2063 
z
" transform="scale(0.015625)"/>
       <path id="DejaVuSans-51" d="M 3513 2113 
L 3513 0 
L 2938 0 
L 2938 2094 
Q 2938 2591 2744 2837 
Q 2550 3084 2163 3084 
Q 1697 3084 1428 2787 
Q 1159 2491 1159 1978 
L 1159 0 
L 581 0 
L 581 3500 
L 1159 3500 
L 1159 2956 
Q 1366 3272 1645 3428 
Q 1925 3584 2291 3584 
Q 2894 3584 3203 3211 
Q 3513 2838 3513 2113 
z
" transform="scale(0.015625)"/>
       <path id="DejaVuSans-1d" d="M 750 794 
L 1409 794 
L 1409 0 
L 750 0 
L 750 794 
z
M 750 3309 
L 1409 3309 
L 1409 2516 
L 750 2516 
L 750 3309 
z
" transform="scale(0.015625)"/>
       <path id="DejaVuSans-18" d="M 691 4666 
L 3169 4666 
L 3169 4134 
L 1269 4134 
L 1269 2991 
Q 1406 3038 1543 3061 
Q 1681 3084 1819 3084 
Q 2600 3084 3056 2656 
Q 3513 2228 3513 1497 
Q 3513 744 3044 326 
Q 2575 -91 1722 -91 
Q 1428 -91 1123 -41 
Q 819 9 494 109 
L 494 744 
Q 775 591 1075 516 
Q 1375 441 1709 441 
Q 2250 441 2565 725 
Q 2881 1009 2881 1497 
Q 2881 1984 2565 2268 
Q 2250 2553 1709 2553 
Q 1456 2553 1204 2497 
Q 953 2441 691 2322 
L 691 4666 
z
" transform="scale(0.015625)"/>
      </defs>
      <use xlink:href="#DejaVuSans-2a"/>
      <use xlink:href="#DejaVuSans-48" transform="translate(77.484375 0)"/>
      <use xlink:href="#DejaVuSans-51" transform="translate(139.015625 0)"/>
      <use xlink:href="#DejaVuSans-1d" transform="translate(202.390625 0)"/>
      <use xlink:href="#DejaVuSans-3" transform="translate(236.078125 0)"/>
      <use xlink:href="#DejaVuSans-18" transform="translate(267.859375 0)"/>
      <use xlink:href="#DejaVuSans-15" transform="translate(331.484375 0)"/>
      <use xlink:href="#DejaVuSans-8" transform="translate(395.109375 0)"/>
     </g>
    </g>
    <g id="line2d_10">
     <path d="M 85.700781 45.144056 
L 93.200781 45.144056 
L 100.700781 45.144056 
" style="fill: none; stroke: #ea5455; stroke-opacity: 0.95; stroke-width: 1.8; stroke-linecap: square"/>
     <defs>
      <path id="mefcfc9a9b4" d="M 0 2.6 
C 0.689528 2.6 1.350908 2.326048 1.838478 1.838478 
C 2.326048 1.350908 2.6 0.689528 2.6 0 
C 2.6 -0.689528 2.326048 -1.350908 1.838478 -1.838478 
C 1.350908 -2.326048 0.689528 -2.6 0 -2.6 
C -0.689528 -2.6 -1.350908 -2.326048 -1.838478 -1.838478 
C -2.326048 -1.350908 -2.6 -0.689528 -2.6 0 
C -2.6 0.689528 -2.326048 1.350908 -1.838478 1.838478 
C -1.350908 2.326048 -0.689528 2.6 0 2.6 
z
" style="stroke: #000000; stroke-opacity: 0.95; stroke-width: 0.5"/>
     </defs>
     <g>
      <use xlink:href="#mefcfc9a9b4" x="93.200781" y="45.144056" style="fill: #ea5455; fill-opacity: 0.95; stroke: #000000; stroke-opacity: 0.95; stroke-width: 0.5"/>
     </g>
    </g>
    <g id="text_9">
     <!-- Sim: 2031% -->
     <g transform="translate(104.450781 50.394056) scale(0.15 -0.15)">
      <defs>
       <path id="DejaVuSans-36" d="M 3425 4513 
L 3425 3897 
Q 3066 4069 2747 4153 
Q 2428 4238 2131 4238 
Q 1616 4238 1336 4038 
Q 1056 3838 1056 3469 
Q 1056 3159 1242 3001 
Q 1428 2844 1947 2747 
L 2328 2669 
Q 3034 2534 3370 2195 
Q 3706 1856 3706 1288 
Q 3706 609 3251 259 
Q 2797 -91 1919 -91 
Q 1588 -91 1214 -16 
Q 841 59 441 206 
L 441 856 
Q 825 641 1194 531 
Q 1563 422 1919 422 
Q 2459 422 2753 634 
Q 3047 847 3047 1241 
Q 3047 1584 2836 1778 
Q 2625 1972 2144 2069 
L 1759 2144 
Q 1053 2284 737 2584 
Q 422 2884 422 3419 
Q 422 4038 858 4394 
Q 1294 4750 2059 4750 
Q 2388 4750 2728 4690 
Q 3069 4631 3425 4513 
z
" transform="scale(0.015625)"/>
       <path id="DejaVuSans-4c" d="M 603 3500 
L 1178 3500 
L 1178 0 
L 603 0 
L 603 3500 
z
M 603 4863 
L 1178 4863 
L 1178 4134 
L 603 4134 
L 603 4863 
z
" transform="scale(0.015625)"/>
       <path id="DejaVuSans-50" d="M 3328 2828 
Q 3544 3216 3844 3400 
Q 4144 3584 4550 3584 
Q 5097 3584 5394 3201 
Q 5691 2819 5691 2113 
L 5691 0 
L 5113 0 
L 5113 2094 
Q 5113 2597 4934 2840 
Q 4756 3084 4391 3084 
Q 3944 3084 3684 2787 
Q 3425 2491 3425 1978 
L 3425 0 
L 2847 0 
L 2847 2094 
Q 2847 2600 2669 2842 
Q 2491 3084 2119 3084 
Q 1678 3084 1418 2786 
Q 1159 2488 1159 1978 
L 1159 0 
L 581 0 
L 581 3500 
L 1159 3500 
L 1159 2956 
Q 1356 3278 1631 3431 
Q 1906 3584 2284 3584 
Q 2666 3584 2933 3390 
Q 3200 3197 3328 2828 
z
" transform="scale(0.015625)"/>
       <path id="DejaVuSans-16" d="M 2597 2516 
Q 3050 2419 3304 2112 
Q 3559 1806 3559 1356 
Q 3559 666 3084 287 
Q 2609 -91 1734 -91 
Q 1441 -91 1130 -33 
Q 819 25 488 141 
L 488 750 
Q 750 597 1062 519 
Q 1375 441 1716 441 
Q 2309 441 2620 675 
Q 2931 909 2931 1356 
Q 2931 1769 2642 2001 
Q 2353 2234 1838 2234 
L 1294 2234 
L 1294 2753 
L 1863 2753 
Q 2328 2753 2575 2939 
Q 2822 3125 2822 3475 
Q 2822 3834 2567 4026 
Q 2313 4219 1838 4219 
Q 1578 4219 1281 4162 
Q 984 4106 628 3988 
L 628 4550 
Q 988 4650 1302 4700 
Q 1616 4750 1894 4750 
Q 2613 4750 3031 4423 
Q 3450 4097 3450 3541 
Q 3450 3153 3228 2886 
Q 3006 2619 2597 2516 
z
" transform="scale(0.015625)"/>
      </defs>
      <use xlink:href="#DejaVuSans-36"/>
      <use xlink:href="#DejaVuSans-4c" transform="translate(63.484375 0)"/>
      <use xlink:href="#DejaVuSans-50" transform="translate(91.265625 0)"/>
      <use xlink:href="#DejaVuSans-1d" transform="translate(188.671875 0)"/>
      <use xlink:href="#DejaVuSans-3" transform="translate(222.359375 0)"/>
      <use xlink:href="#DejaVuSans-15" transform="translate(254.140625 0)"/>
      <use xlink:href="#DejaVuSans-13" transform="translate(317.765625 0)"/>
      <use xlink:href="#DejaVuSans-16" transform="translate(381.390625 0)"/>
      <use xlink:href="#DejaVuSans-14" transform="translate(445.015625 0)"/>
      <use xlink:href="#DejaVuSans-8" transform="translate(508.640625 0)"/>
     </g>
    </g>
   </g>
   <g id="line2d_11">
    <path d="M 56.650002 61.347018 
L 98.5 61.981883 
L 119.425003 61.487983 
L 140.349998 61.002328 
L 161.274994 61.50394 
L 182.200005 61.447608 
L 203.125 61.55674 
L 224.049995 61.398759 
" clip-path="url(#p624d46a205)" style="fill: none; stroke: #9dbdff; stroke-opacity: 0.95; stroke-width: 1.8; stroke-linecap: square"/>
    <g clip-path="url(#p624d46a205)">
     <use xlink:href="#m6213758f34" x="56.650002" y="61.347018" style="fill: #9dbdff; fill-opacity: 0.95; stroke: #000000; stroke-opacity: 0.95; stroke-width: 0.5"/>
     <use xlink:href="#m6213758f34" x="98.5" y="61.981883" style="fill: #9dbdff; fill-opacity: 0.95; stroke: #000000; stroke-opacity: 0.95; stroke-width: 0.5"/>
     <use xlink:href="#m6213758f34" x="119.425003" y="61.487983" style="fill: #9dbdff; fill-opacity: 0.95; stroke: #000000; stroke-opacity: 0.95; stroke-width: 0.5"/>
     <use xlink:href="#m6213758f34" x="140.349998" y="61.002328" style="fill: #9dbdff; fill-opacity: 0.95; stroke: #000000; stroke-opacity: 0.95; stroke-width: 0.5"/>
     <use xlink:href="#m6213758f34" x="161.274994" y="61.50394" style="fill: #9dbdff; fill-opacity: 0.95; stroke: #000000; stroke-opacity: 0.95; stroke-width: 0.5"/>
     <use xlink:href="#m6213758f34" x="182.200005" y="61.447608" style="fill: #9dbdff; fill-opacity: 0.95; stroke: #000000; stroke-opacity: 0.95; stroke-width: 0.5"/>
     <use xlink:href="#m6213758f34" x="203.125" y="61.55674" style="fill: #9dbdff; fill-opacity: 0.95; stroke: #000000; stroke-opacity: 0.95; stroke-width: 0.5"/>
     <use xlink:href="#m6213758f34" x="224.049995" y="61.398759" style="fill: #9dbdff; fill-opacity: 0.95; stroke: #000000; stroke-opacity: 0.95; stroke-width: 0.5"/>
    </g>
   </g>
   <g id="line2d_12">
    <path d="M 56.650002 17.128948 
L 77.574997 14.756122 
L 98.5 18.95656 
L 119.425003 15.586557 
L 140.349998 20.427646 
L 161.274994 17.881131 
L 182.200005 15.335643 
L 203.125 16.565856 
L 224.049995 17.071156 
" clip-path="url(#p624d46a205)" style="fill: none; stroke: #ea5455; stroke-opacity: 0.95; stroke-width: 1.8; stroke-linecap: square"/>
    <g clip-path="url(#p624d46a205)">
     <use xlink:href="#mefcfc9a9b4" x="56.650002" y="17.128948" style="fill: #ea5455; fill-opacity: 0.95; stroke: #000000; stroke-opacity: 0.95; stroke-width: 0.5"/>
     <use xlink:href="#mefcfc9a9b4" x="77.574997" y="14.756122" style="fill: #ea5455; fill-opacity: 0.95; stroke: #000000; stroke-opacity: 0.95; stroke-width: 0.5"/>
     <use xlink:href="#mefcfc9a9b4" x="98.5" y="18.95656" style="fill: #ea5455; fill-opacity: 0.95; stroke: #000000; stroke-opacity: 0.95; stroke-width: 0.5"/>
     <use xlink:href="#mefcfc9a9b4" x="119.425003" y="15.586557" style="fill: #ea5455; fill-opacity: 0.95; stroke: #000000; stroke-opacity: 0.95; stroke-width: 0.5"/>
     <use xlink:href="#mefcfc9a9b4" x="140.349998" y="20.427646" style="fill: #ea5455; fill-opacity: 0.95; stroke: #000000; stroke-opacity: 0.95; stroke-width: 0.5"/>
     <use xlink:href="#mefcfc9a9b4" x="161.274994" y="17.881131" style="fill: #ea5455; fill-opacity: 0.95; stroke: #000000; stroke-opacity: 0.95; stroke-width: 0.5"/>
     <use xlink:href="#mefcfc9a9b4" x="182.200005" y="15.335643" style="fill: #ea5455; fill-opacity: 0.95; stroke: #000000; stroke-opacity: 0.95; stroke-width: 0.5"/>
     <use xlink:href="#mefcfc9a9b4" x="203.125" y="16.565856" style="fill: #ea5455; fill-opacity: 0.95; stroke: #000000; stroke-opacity: 0.95; stroke-width: 0.5"/>
     <use xlink:href="#mefcfc9a9b4" x="224.049995" y="17.071156" style="fill: #ea5455; fill-opacity: 0.95; stroke: #000000; stroke-opacity: 0.95; stroke-width: 0.5"/>
    </g>
   </g>
  </g>
 </g>
 <defs>
  <clipPath id="p624d46a205">
   <rect x="56.65" y="7.2" width="167.4" height="55.44"/>
  </clipPath>
 </defs>
</svg>
